<?xml version="1.0" encoding="utf-8"?>
<svg viewBox="0 0 500 500" xmlns="http://www.w3.org/2000/svg">
  <g transform="matrix(4.797224, 0, 0, 4.797224, 3.234206, -4508.388672)" style="">
    <path d="m 18.887304,1033.4749 c -7.02681,-7.0268 -7.02682,-18.4291 0,-25.4559 l 36.76955,-36.76955 c 7.02681,-7.02681 18.42904,-7.0268 25.45585,0 7.0268,7.0268 7.02681,18.42904 -10e-6,25.45586 l -36.76955,36.76959 c -7.02681,7.0268 -18.42904,7.0268 -25.45584,0 z m 22.62741,-42.42646 19.79899,19.79896 16.97057,-16.97053 c 5.50878,-5.50878 5.50878,-14.29021 -1e-5,-19.79899 -5.50878,-5.50879 -14.29021,-5.50878 -19.79898,0 z m 25.98618,4.81717 c -0.61855,-0.7713 -0.5372,-2.01195 0.17678,-2.69585 l 2.82842,-2.82842 c 1.5724,-1.57241 2.53509,-3.22412 2.78424,-4.5962 0.24914,-1.37208 0.0133,-2.50577 -1.37002,-3.88909 -0.75771,-0.73658 -0.76736,-2.10134 -0.0202,-2.84857 0.74723,-0.74722 2.11199,-0.73757 2.84857,0.0202 2.14233,2.14231 2.93282,4.90267 2.47488,7.42461 -0.45795,2.52195 -1.93586,4.76428 -3.8891,6.71752 l -2.82843,2.8284 c -0.78497,0.8196 -2.29545,0.7529 -3.0052,-0.1326 z" style="text-indent: 0px; text-transform: none; direction: ltr; baseline-shift: baseline; color: rgb(0, 0, 0); fill: rgb(0, 153, 204);" fill-opacity="1" stroke="none" marker="none" visibility="visible" display="inline" overflow="visible"/>
  </g>
</svg>